<svg width="24" height="25" viewBox="0 0 24 25" fill="none" xmlns="http://www.w3.org/2000/svg">
<g id="tag_faces_24px">
<path id="icon/image/tag_faces_24px" fill-rule="evenodd" clip-rule="evenodd" d="M11.99 2.50002C6.47 2.50002 2 6.98002 2 12.5C2 18.02 6.47 22.5 11.99 22.5C17.52 22.5 22 18.02 22 12.5C22 6.98002 17.52 2.50002 11.99 2.50002ZM12 20.5C7.58 20.5 4 16.92 4 12.5C4 8.08002 7.58 4.50002 12 4.50002C16.42 4.50002 20 8.08002 20 12.5C20 16.92 16.42 20.5 12 20.5ZM17 10C17 10.83 16.33 11.5 15.5 11.5C14.67 11.5 14 10.83 14 10C14 9.17002 14.67 8.50002 15.5 8.50002C16.33 8.50002 17 9.17002 17 10ZM8.5 11.5C9.33 11.5 10 10.83 10 10C10 9.17002 9.33 8.50002 8.5 8.50002C7.67 8.50002 7 9.17002 7 10C7 10.83 7.67 11.5 8.5 11.5ZM17.11 14.5C16.31 16.54 14.33 18 12 18C9.67 18 7.69 16.54 6.89 14.5H17.11Z" fill="#5B85D7"/>
</g>
</svg>
