<svg width="20" height="21" viewBox="0 0 20 21" fill="none" xmlns="http://www.w3.org/2000/svg">
<path d="M18.48 9.36C18.8267 9.36 19.12 9.48 19.36 9.72C19.6267 9.96 19.76 10.2533 19.76 10.6C19.76 10.9467 19.64 11.2533 19.4 11.52C19.16 11.76 18.8533 11.88 18.48 11.88H11.24V19.08C11.24 19.4533 11.12 19.76 10.88 20C10.64 20.24 10.3467 20.36 10 20.36C9.65333 20.36 9.36 20.24 9.12 20C8.88 19.7333 8.76 19.4267 8.76 19.08V11.88H1.52C1.17333 11.88 0.866667 11.76 0.6 11.52C0.36 11.2533 0.24 10.9467 0.24 10.6C0.24 10.2533 0.36 9.96 0.6 9.72C0.866667 9.48 1.17333 9.36 1.52 9.36H8.76V2.16C8.76 1.78667 8.88 1.48 9.12 1.24C9.36 0.973331 9.65333 0.839998 10 0.839998C10.3467 0.839998 10.64 0.973331 10.88 1.24C11.12 1.48 11.24 1.78667 11.24 2.16V9.36H18.48Z" fill="#9DA5B1"/>
</svg>
