<svg width="26" height="21" viewBox="0 0 26 21" fill="none" xmlns="http://www.w3.org/2000/svg">
<path fill-rule="evenodd" clip-rule="evenodd" d="M9.1 10.3704C11.609 10.3704 13.65 8.1275 13.65 5.37036C13.65 2.61322 11.609 0.370361 9.1 0.370361C6.591 0.370361 4.55 2.61322 4.55 5.37036C4.55 8.1275 6.591 10.3704 9.1 10.3704ZM0 17.8704C0 14.5418 6.058 12.8704 9.1 12.8704C12.142 12.8704 18.2 14.5418 18.2 17.8704V20.3704H0V17.8704ZM9.09999 15.7275C6.77299 15.7275 4.134 16.6847 3.042 17.5132H15.158C14.066 16.6847 11.427 15.7275 9.09999 15.7275ZM11.05 5.37037C11.05 4.18465 10.179 3.22751 9.1 3.22751C8.021 3.22751 7.15 4.18465 7.15 5.37037C7.15 6.55608 8.021 7.51322 9.1 7.51322C10.179 7.51322 11.05 6.55608 11.05 5.37037ZM18.252 12.9561C19.76 14.1561 20.8 15.7561 20.8 17.8704V20.3704H26V17.8704C26 14.9847 21.45 13.3418 18.252 12.9561ZM21.45 5.37036C21.45 8.1275 19.409 10.3704 16.9 10.3704C16.198 10.3704 15.548 10.1846 14.95 9.87036C15.769 8.59893 16.25 7.04179 16.25 5.37036C16.25 3.69893 15.769 2.14179 14.95 0.870361C15.548 0.556076 16.198 0.370361 16.9 0.370361C19.409 0.370361 21.45 2.61322 21.45 5.37036Z" fill="#C2C2C2"/>
</svg>
