<svg width="156" height="161" viewBox="0 0 156 161" fill="none" xmlns="http://www.w3.org/2000/svg">
<rect x="5.74992" y="0.608398" width="150" height="160" fill="white"/>
<path d="M35.3466 63.1564L2.13049 55.9191L1.69882 55.8252C1.47899 55.777 1.25015 55.7924 1.03862 55.8697C0.827082 55.947 0.64144 56.0831 0.503041 56.2622C0.364643 56.4413 0.279103 56.6562 0.256266 56.8823C0.233429 57.1083 0.274224 57.3363 0.373949 57.54L13.5621 84.5914C13.6474 84.7652 13.7729 84.9158 13.9279 85.0304C14.0828 85.145 14.2628 85.2203 14.4526 85.25C14.643 85.2799 14.8378 85.2626 15.0201 85.1995C15.2023 85.1363 15.3667 85.0293 15.4988 84.8877L24.659 75.1319C24.7242 75.0607 24.8032 75.004 24.8911 74.9652C24.9791 74.9264 25.074 74.9064 25.17 74.9065C25.3004 74.9046 25.4289 74.9386 25.5416 75.0048C25.6544 75.0711 25.7472 75.167 25.8102 75.2824L27.6864 78.7878C27.8062 79.0215 27.9999 79.2081 28.2368 79.3177C28.4737 79.4273 28.7401 79.4538 28.9935 79.3928L29.0029 79.3907C29.2594 79.3359 29.4903 79.1954 29.6583 78.992C29.8263 78.7886 29.9217 78.5341 29.9291 78.2693L30.305 70.1777C30.3095 70.0767 30.3344 69.9778 30.3783 69.8869C30.4255 69.7971 30.4894 69.7173 30.5667 69.6521L35.8513 65.2704C36.025 65.1264 36.155 64.9359 36.2264 64.7207C36.2978 64.5055 36.3078 64.2743 36.2551 64.0536C36.2024 63.8329 36.0892 63.6317 35.9286 63.4731C35.7679 63.3144 35.5662 63.2046 35.3466 63.1564ZM35.5495 64.8979L30.2649 69.2796C30.196 69.3356 30.1336 69.3993 30.0789 69.4694L2.07046 56.6393C2.04575 56.6277 2.01998 56.6186 1.99351 56.612C1.88548 56.5839 1.77111 56.5948 1.67019 56.6428C1.56927 56.6909 1.48814 56.773 1.44083 56.8751C1.39352 56.9771 1.38301 57.0926 1.41111 57.2017C1.43921 57.3107 1.50416 57.4065 1.59473 57.4723L24.6239 74.559C24.5071 74.6203 24.4016 74.7016 24.312 74.7992L15.152 84.5549C15.0725 84.6394 14.974 84.7033 14.8648 84.7411C14.7557 84.7789 14.6391 84.7895 14.525 84.772C14.411 84.7546 14.3027 84.7096 14.2095 84.6408C14.1164 84.5721 14.041 84.4817 13.9898 84.3772L0.801699 57.3257C0.742741 57.2035 0.718955 57.067 0.733055 56.9318C0.747155 56.7966 0.798571 56.6681 0.881447 56.561C0.964323 56.4538 1.07533 56.3723 1.20181 56.3258C1.32829 56.2793 1.46517 56.2696 1.59685 56.2978L2.03877 56.3943L35.2445 63.629C35.3763 63.6579 35.4975 63.7236 35.5941 63.8187C35.6906 63.9139 35.7587 64.0346 35.7905 64.167C35.8224 64.2994 35.8166 64.4382 35.774 64.5675C35.7314 64.6967 35.6536 64.8113 35.5495 64.8979Z" fill="#EE2993"/>
<path d="M42.427 159.658C39.4475 158.845 35.8215 155.464 36.5977 150.818C36.9828 148.513 38.4604 147.021 39.9926 146.057C42.1119 144.722 44.5256 144.22 46.8516 144.093C49.5346 143.946 52.2145 144.315 54.8774 144.706C57.5062 145.092 60.1352 145.437 62.7758 145.648C73.1083 146.467 83.5041 145.687 93.6036 143.336C96.0963 142.755 98.574 142.073 101.037 141.291C103.371 140.597 105.652 139.736 107.864 138.714C110.793 137.294 115.554 134.531 115.166 129.414C114.96 126.7 113.378 124.533 111.783 123.024C109.853 121.198 107.621 119.997 105.434 118.831C95.2639 113.406 85.0736 108.045 74.8932 102.653C72.5172 101.394 70.1255 100.17 67.8195 98.6947C65.6607 97.3139 63.5119 95.7099 61.7745 93.4921C60.257 91.5551 58.9011 88.9546 58.9489 86.0477C58.9886 83.637 60.0747 81.5912 61.4049 80.0623C64.6984 76.277 69.3572 74.7422 73.5679 73.9383C78.7992 72.9395 84.1062 72.9447 89.3409 71.9802C93.5676 71.2015 98.0839 69.6981 101.521 66.1753C102.976 64.7424 104.004 62.9274 104.491 60.9352C104.93 58.8487 104.716 56.6759 103.88 54.7171C102.949 52.4706 101.464 50.681 99.9018 49.2156C98.1077 47.5556 96.0728 46.1825 93.8678 45.1438C89.2252 42.9092 84.3431 41.7457 79.5875 40.0308C77.2553 39.1898 74.8994 38.2676 72.7338 36.823C70.899 35.5992 68.9004 33.9495 67.8796 31.4963C65.7735 26.4349 70.798 23.4183 73.645 22.2757C75.58 21.5343 77.5732 20.958 79.6035 20.5527C80.0328 20.4596 79.8507 19.5941 79.4234 19.6867C77.2862 20.1076 75.1917 20.7253 73.1662 21.5322C71.4493 22.2527 69.6779 23.1995 68.3294 24.8289C67.7154 25.5646 67.2614 26.4224 66.997 27.3468C66.7325 28.2711 66.6634 29.2413 66.7943 30.1944C67.1515 32.6229 68.7042 34.4942 70.1624 35.8496C72.0908 37.6419 74.2894 38.8125 76.5187 39.7666C78.8665 40.7716 81.2641 41.5547 83.6609 42.3229C88.4503 43.858 93.4545 45.2259 97.778 48.4923C100.802 50.7773 104.911 55.0616 103.905 60.3719C103.458 62.7292 102.102 64.5723 100.639 65.9278C98.9201 67.4728 96.9382 68.69 94.7893 69.5203C85.2084 73.4149 74.664 70.6298 65.3301 75.9194C62.1565 77.7179 58.3017 80.9925 58.2707 86.1447C58.2546 88.8211 59.3167 91.2758 60.6299 93.216C62.2027 95.5399 64.2393 97.2583 66.3115 98.6946C68.4934 100.151 70.7589 101.476 73.0962 102.662C75.6494 104.017 78.2032 105.37 80.7576 106.721L96.259 114.931L103.961 119.011C106.312 120.256 108.723 121.45 110.86 123.278C112.61 124.775 114.677 127.23 114.499 130.279C114.357 132.7 112.765 134.447 111.31 135.615C109.425 137.128 107.309 138.106 105.203 138.919C102.774 139.857 100.305 140.635 97.831 141.334C92.7637 142.765 87.5921 143.787 82.3648 144.392C77.1505 144.998 71.8975 145.196 66.653 144.983C64.0031 144.876 61.3574 144.662 58.7157 144.341C55.9927 144.01 53.2814 143.5 50.5514 143.273C48.0821 143.068 45.589 143.116 43.1572 143.774C41.1267 144.324 38.9815 145.303 37.4402 147.215C36.3041 148.674 35.7352 150.503 35.8405 152.356C35.9449 154.206 36.5977 155.981 37.7143 157.45C38.8484 158.952 40.4419 160.032 42.2469 160.524C42.6725 160.64 42.8545 159.774 42.427 159.658L42.427 159.658Z" fill="#15254F"/>
<path d="M119.25 160.068H41.8356V160.608H119.25V160.068Z" fill="#3F3D56"/>
<path d="M113.047 134.596C115.84 134.596 118.105 132.309 118.105 129.488C118.105 126.667 115.84 124.38 113.047 124.38C110.254 124.38 107.99 126.667 107.99 129.488C107.99 132.309 110.254 134.596 113.047 134.596Z" fill="#5B85D7"/>
<path d="M103.821 62.5999C106.614 62.5999 108.878 60.3129 108.878 57.4918C108.878 54.6707 106.614 52.3837 103.821 52.3837C101.028 52.3837 98.7636 54.6707 98.7636 57.4918C98.7636 60.3129 101.028 62.5999 103.821 62.5999Z" fill="#4913DF"/>
<path d="M92.387 4.82217L78.3446 10.9881C77.7245 11.2613 77.2369 11.7718 76.9888 12.4076C76.7408 13.0434 76.7526 13.7527 77.0217 14.3797L81.3821 24.5108C81.6525 25.1373 82.1579 25.6298 82.7874 25.8803C83.4169 26.1308 84.1191 26.1189 84.7399 25.8471L98.7822 19.6812C99.4024 19.408 99.89 18.8975 100.138 18.2617C100.386 17.6259 100.374 16.9166 100.105 16.2896L95.7448 6.15845C95.4743 5.53202 94.9689 5.03952 94.3394 4.78901C93.7099 4.53849 93.0078 4.55042 92.387 4.82217V4.82217ZM92.9684 6.17299C93.0523 6.13651 93.1405 6.11086 93.2308 6.09665L88.4833 15.144L78.7323 12.4487C78.7931 12.4056 78.858 12.3688 78.926 12.3389L92.9684 6.17299ZM98.2008 18.3304L84.1585 24.4963C83.8924 24.6128 83.5915 24.6179 83.3217 24.5105C83.0519 24.4031 82.8353 24.1921 82.7194 23.9236L78.3982 13.8835L88.6617 16.7204C88.8215 16.7646 88.9914 16.7524 89.1435 16.686C89.2956 16.6196 89.4207 16.5028 89.4983 16.3549L94.4675 6.8852L98.7678 16.8768C98.8831 17.1455 98.8881 17.4495 98.7818 17.722C98.6756 17.9945 98.4666 18.2133 98.2008 18.3304V18.3304Z" fill="#EE2993"/>
<path d="M76.6367 92.7013C83.6983 92.7013 89.4229 86.9191 89.4229 79.7864C89.4229 72.6538 83.6983 66.8716 76.6367 66.8716C69.5751 66.8716 63.8505 72.6538 63.8505 79.7864C63.8505 86.9191 69.5751 92.7013 76.6367 92.7013Z" fill="#FFE792"/>
<path d="M74.622 160.227H71.0958C70.6841 160.226 70.2894 160.061 69.9982 159.767C69.7071 159.473 69.5434 159.074 69.5429 158.658V128.974C69.5434 128.558 69.7071 128.159 69.9982 127.865C70.2894 127.571 70.6841 127.406 71.0958 127.405H74.622C75.0337 127.406 75.4284 127.571 75.7196 127.865C76.0107 128.159 76.1745 128.558 76.1749 128.974V158.658C76.1745 159.074 76.0107 159.473 75.7196 159.767C75.4284 160.061 75.0337 160.226 74.622 160.227Z" fill="#2F2E41"/>
<path d="M81.5963 160.227H78.0701C77.6584 160.226 77.2637 160.061 76.9725 159.767C76.6814 159.473 76.5177 159.074 76.5172 158.658V128.974C76.5177 128.558 76.6814 128.159 76.9725 127.865C77.2637 127.571 77.6584 127.406 78.0701 127.405H81.5963C82.008 127.406 82.4027 127.571 82.6939 127.865C82.985 128.159 83.1487 128.558 83.1492 128.974V158.658C83.1487 159.074 82.985 159.473 82.6939 159.767C82.4027 160.061 82.008 160.226 81.5963 160.227Z" fill="#2F2E41"/>
<path d="M96.2087 125.869C96.0538 125.869 95.8998 125.846 95.7517 125.8C95.5565 125.74 95.375 125.642 95.2177 125.51C95.0604 125.379 94.9304 125.218 94.8352 125.035L81.0586 98.8142C80.963 98.6323 80.9038 98.4331 80.8844 98.228C80.865 98.023 80.8858 97.8161 80.9456 97.6192C81.0053 97.4223 81.1029 97.2392 81.2328 97.0803C81.3626 96.9215 81.5221 96.7901 81.7023 96.6935L84.8169 95.0239C84.9971 94.9273 85.1943 94.8674 85.3973 94.8478C85.6003 94.8282 85.8052 94.8492 86.0002 94.9096C86.1952 94.9699 86.3765 95.0685 86.5338 95.1997C86.691 95.3309 86.8212 95.4921 86.9167 95.6741L100.693 121.895C100.789 122.077 100.848 122.276 100.867 122.482C100.887 122.687 100.866 122.893 100.806 123.09C100.747 123.287 100.649 123.47 100.519 123.629C100.389 123.788 100.23 123.92 100.049 124.016L96.9348 125.686C96.7114 125.806 96.462 125.869 96.2087 125.869V125.869Z" fill="#FFE792"/>
<path d="M67.5294 101.7C67.3431 101.7 67.1582 101.666 66.9839 101.6L39.4907 91.109C39.3 91.0362 39.1253 90.9261 38.9768 90.7851C38.8282 90.6441 38.7086 90.4748 38.6249 90.2871C38.5411 90.0994 38.4948 89.8968 38.4886 89.691C38.4824 89.4851 38.5164 89.2801 38.5887 89.0875L39.8325 85.7556C39.9793 85.367 40.2725 85.0529 40.6479 84.8821C41.0234 84.7112 41.4506 84.6976 41.836 84.8441L69.3284 95.3324C69.713 95.4803 70.0239 95.7758 70.1934 96.1545C70.3629 96.5332 70.3771 96.9642 70.233 97.3534L68.9869 100.686C68.8743 100.984 68.6747 101.241 68.4144 101.422C68.1541 101.603 67.8455 101.7 67.5294 101.7Z" fill="#FFE792"/>
<path d="M84.5023 94.9451H68.4805C67.6889 94.9451 67.0471 95.5933 67.0471 96.3929V130.774C67.0471 131.574 67.6889 132.222 68.4805 132.222H84.5023C85.294 132.222 85.9358 131.574 85.9358 130.774V96.3929C85.9358 95.5933 85.294 94.9451 84.5023 94.9451Z" fill="#6C63FF"/>
<path d="M86.081 67.139C86.8322 68.8042 87.5514 70.8168 86.7427 72.5981C86.446 73.3177 85.8895 73.8964 85.186 74.2168C84.3525 74.5526 83.4441 74.361 82.6718 73.955C81.0457 73.1003 79.9976 71.512 78.5458 70.4239C77.8849 69.9041 77.1032 69.5638 76.2752 69.4356C75.3212 69.31 74.3742 69.5372 73.4411 69.7127C72.4487 69.8993 71.4231 69.9978 70.5046 69.4895C69.6966 69.0124 69.0642 68.2827 68.7031 67.4106C68.5139 66.9865 67.8961 67.3541 68.0842 67.7759C68.8652 69.5271 70.4803 70.7203 72.4209 70.5823C73.4478 70.5093 74.4396 70.1744 75.4681 70.1264C76.4065 70.0951 77.3267 70.3922 78.073 70.9676C79.667 72.1152 80.7489 73.8778 82.5775 74.7114C83.4403 75.1047 84.4284 75.2686 85.3381 74.9299C86.1227 74.6216 86.7764 74.0466 87.1865 73.304C88.3866 71.2168 87.6158 68.804 86.6998 66.7736C86.5088 66.3503 85.8909 66.7178 86.081 67.139V67.139Z" fill="#2F2E41"/>
<path d="M78.0502 84.0986C77.2605 84.0762 76.2773 84.0484 75.5202 83.4897C75.2948 83.3165 75.1095 83.0956 74.9774 82.8425C74.8454 82.5894 74.7697 82.3101 74.7557 82.0244C74.742 81.8213 74.775 81.6177 74.8521 81.4296C74.9292 81.2415 75.0483 81.074 75.2001 80.9401C75.5954 80.6025 76.1728 80.5232 76.7957 80.7082L76.1506 75.9481L76.6243 75.8826L77.3823 81.4785L76.9871 81.2955C76.5291 81.0832 75.8996 80.9749 75.5086 81.3087C75.4126 81.3959 75.3378 81.5043 75.2901 81.6255C75.2423 81.7466 75.2229 81.8773 75.2333 82.0073C75.2448 82.22 75.3017 82.4277 75.3998 82.6162C75.498 82.8047 75.6352 82.9697 75.8021 83.0999C76.3914 83.5347 77.1749 83.591 78.0638 83.616L78.0502 84.0986Z" fill="#2F2E41"/>
<path d="M73.8096 76.3586H71.2362V76.8413H73.8096V76.3586Z" fill="#2F2E41"/>
<path d="M81.9325 76.3586H79.3591V76.8413H81.9325V76.3586Z" fill="#2F2E41"/>
<path d="M67.0259 101.487L55.7271 98.007C55.3747 97.8984 55.0772 97.657 54.8964 97.3328C54.7155 97.0086 54.6652 96.6265 54.7558 96.2659L56.0748 91.0163C56.1269 90.8089 56.2239 90.6158 56.3587 90.4508C56.4935 90.2858 56.6629 90.153 56.8546 90.062C57.0463 89.971 57.2556 89.9241 57.4674 89.9246C57.6792 89.925 57.8883 89.9729 58.0796 90.0648L69.2864 95.4453C69.6415 95.5815 69.9288 95.8542 70.0853 96.2038C70.2418 96.5534 70.2548 96.9515 70.1214 97.3107L68.8751 100.643C68.7404 101.003 68.47 101.293 68.1233 101.451C67.7766 101.61 67.3819 101.622 67.0259 101.487V101.487Z" fill="#2F2E41"/>
<path d="M81.2616 98.5173L86.1073 109.398C86.2584 109.738 86.5331 110.005 86.8743 110.146C87.2156 110.286 87.5972 110.288 87.94 110.152L92.9289 108.167C93.1259 108.088 93.3034 107.967 93.4484 107.811C93.5934 107.655 93.7023 107.468 93.7675 107.265C93.8326 107.061 93.8523 106.845 93.825 106.633C93.7978 106.421 93.7243 106.218 93.6099 106.038L86.9094 95.4889C86.7308 95.1502 86.4266 94.8968 86.0634 94.7842C85.7003 94.6716 85.3078 94.7089 84.9718 94.888L81.8564 96.5579C81.5205 96.7383 81.2692 97.046 81.1577 97.4133C81.0462 97.7807 81.0836 98.1777 81.2616 98.5173V98.5173Z" fill="#2F2E41"/>
<path d="M35.3466 63.1564L2.13049 55.9191L1.69882 55.8252C1.47899 55.777 1.25015 55.7924 1.03862 55.8697C0.827082 55.947 0.64144 56.0831 0.503041 56.2622C0.364643 56.4413 0.279103 56.6562 0.256266 56.8823C0.233429 57.1083 0.274224 57.3363 0.373949 57.54L13.5621 84.5914C13.6474 84.7652 13.7729 84.9158 13.9279 85.0304C14.0828 85.145 14.2628 85.2203 14.4526 85.25C14.643 85.2799 14.8378 85.2626 15.0201 85.1995C15.2023 85.1363 15.3667 85.0293 15.4988 84.8877L24.659 75.1319C24.7242 75.0607 24.8032 75.004 24.8911 74.9652C24.9791 74.9264 25.074 74.9064 25.17 74.9065C25.3004 74.9046 25.4289 74.9386 25.5416 75.0048C25.6544 75.0711 25.7472 75.167 25.8102 75.2824L27.6864 78.7878C27.8062 79.0215 27.9999 79.2081 28.2368 79.3177C28.4737 79.4273 28.7401 79.4538 28.9935 79.3928L29.0029 79.3907C29.2594 79.3359 29.4903 79.1954 29.6583 78.992C29.8263 78.7886 29.9217 78.5341 29.9291 78.2693L30.305 70.1777C30.3095 70.0767 30.3344 69.9778 30.3783 69.8869C30.4255 69.7971 30.4894 69.7173 30.5667 69.6521L35.8513 65.2704C36.025 65.1264 36.155 64.9359 36.2264 64.7207C36.2978 64.5055 36.3078 64.2743 36.2551 64.0536C36.2024 63.8329 36.0892 63.6317 35.9286 63.4731C35.7679 63.3144 35.5662 63.2046 35.3466 63.1564ZM35.5495 64.8979L30.2649 69.2796C30.196 69.3356 30.1336 69.3993 30.0789 69.4694C30.0295 69.5318 29.9869 69.5993 29.9517 69.6709C29.9148 69.744 29.8858 69.8209 29.865 69.9003L29.8655 69.9027C29.8436 69.9853 29.831 70.0702 29.8279 70.1558L29.4522 78.2474C29.449 78.4065 29.3924 78.5597 29.2915 78.682C29.1906 78.8042 29.0516 78.8882 28.8972 78.92L28.8926 78.9211C28.7405 78.9593 28.5801 78.9444 28.4374 78.8789C28.2947 78.8135 28.178 78.7013 28.1064 78.5605L26.2296 75.0527C26.1329 74.8723 25.9922 74.7199 25.8208 74.6098C25.6494 74.4997 25.4529 74.4358 25.2502 74.4239L25.2479 74.4244C25.2206 74.4231 25.1934 74.4218 25.1668 74.4228C24.9775 74.4229 24.7912 74.4696 24.6239 74.559C24.5071 74.6203 24.4016 74.7016 24.312 74.7992L15.152 84.5549C15.0725 84.6394 14.974 84.7033 14.8648 84.7411C14.7557 84.7789 14.6391 84.7895 14.525 84.772C14.411 84.7546 14.3027 84.7096 14.2096 84.6408C14.1164 84.5721 14.041 84.4817 13.9898 84.3772L0.801699 57.3257C0.742741 57.2035 0.718955 57.067 0.733055 56.9318C0.747155 56.7966 0.798571 56.6681 0.881447 56.561C0.964323 56.4538 1.07533 56.3723 1.20181 56.3258C1.32829 56.2793 1.46517 56.2696 1.59685 56.2978L2.03877 56.3943L35.2445 63.629C35.3763 63.6579 35.4975 63.7236 35.5941 63.8187C35.6906 63.9139 35.7587 64.0346 35.7905 64.167C35.8224 64.2994 35.8166 64.4382 35.774 64.5675C35.7314 64.6967 35.6536 64.8113 35.5495 64.8979Z" fill="#3F3D56"/>
<path d="M30.1848 69.5174L29.9875 69.9569L29.8655 69.9026L29.865 69.9003L1.87876 57.0825L25.2479 74.4244L25.2501 74.4239L25.312 74.4718L25.0302 74.861L24.6239 74.5589L1.59471 57.4722C1.50414 57.4064 1.43919 57.3107 1.41109 57.2016C1.38299 57.0926 1.3935 56.977 1.44081 56.875C1.48812 56.7729 1.56925 56.6908 1.67017 56.6428C1.77109 56.5947 1.88546 56.5838 1.99349 56.612C2.01996 56.6185 2.04573 56.6276 2.07043 56.6392L30.0789 69.4694L30.1848 69.5174Z" fill="#3F3D56"/>
</svg>
