<svg width="246" height="177" viewBox="0 0 246 177" fill="none" xmlns="http://www.w3.org/2000/svg">
<path d="M80.3466 67.3813L47.1305 60.1439L46.6988 60.0501C46.479 60.0019 46.2502 60.0173 46.0386 60.0946C45.8271 60.1719 45.6414 60.3079 45.503 60.487C45.3646 60.6662 45.2791 60.8811 45.2563 61.1071C45.2334 61.3332 45.2742 61.5611 45.3739 61.7648L58.5621 88.8163C58.6474 88.9901 58.7729 89.1406 58.9279 89.2552C59.0828 89.3699 59.2628 89.4452 59.4526 89.4749C59.643 89.5048 59.8378 89.4874 60.0201 89.4243C60.2023 89.3612 60.3667 89.2542 60.4988 89.1125L69.659 79.3567C69.7242 79.2856 69.8032 79.2288 69.8911 79.19C69.9791 79.1512 70.074 79.1313 70.17 79.1313C70.3004 79.1295 70.4289 79.1635 70.5416 79.2297C70.6544 79.2959 70.7472 79.3919 70.8102 79.5073L72.6864 83.0127C72.8062 83.2464 72.9999 83.4329 73.2368 83.5426C73.4737 83.6522 73.7401 83.6786 73.9935 83.6177L74.0029 83.6156C74.2594 83.5607 74.4903 83.4203 74.6583 83.2169C74.8263 83.0135 74.9217 82.7589 74.9291 82.4941L75.305 74.4025C75.3095 74.3016 75.3344 74.2026 75.3783 74.1118C75.4255 74.0219 75.4894 73.9422 75.5667 73.8769L80.8513 69.4953C81.025 69.3513 81.155 69.1607 81.2264 68.9455C81.2978 68.7303 81.3078 68.4991 81.2551 68.2785C81.2024 68.0578 81.0892 67.8566 80.9286 67.6979C80.7679 67.5392 80.5662 67.4295 80.3466 67.3813ZM80.5495 69.1228L75.2649 73.5045C75.196 73.5605 75.1336 73.6242 75.0789 73.6943L47.0705 60.8641C47.0458 60.8525 47.02 60.8434 46.9935 60.8369C46.8855 60.8088 46.7711 60.8197 46.6702 60.8677C46.5693 60.9157 46.4881 60.9979 46.4408 61.0999C46.3935 61.202 46.383 61.3175 46.4111 61.4265C46.4392 61.5356 46.5042 61.6313 46.5947 61.6971L69.6239 78.7838C69.5071 78.8452 69.4016 78.9264 69.312 79.024L60.152 88.7798C60.0725 88.8643 59.974 88.9281 59.8648 88.9659C59.7557 89.0037 59.6391 89.0143 59.525 88.9969C59.411 88.9794 59.3027 88.9344 59.2095 88.8657C59.1164 88.797 59.041 88.7065 58.9898 88.6021L45.8017 61.5506C45.7427 61.4284 45.719 61.2919 45.7331 61.1567C45.7472 61.0214 45.7986 60.8929 45.8814 60.7858C45.9643 60.6787 46.0753 60.5972 46.2018 60.5507C46.3283 60.5042 46.4652 60.4945 46.5968 60.5227L47.0388 60.6191L80.2445 67.8539C80.3763 67.8827 80.4975 67.9485 80.5941 68.0436C80.6906 68.1387 80.7587 68.2594 80.7905 68.3918C80.8224 68.5243 80.8166 68.663 80.774 68.7923C80.7314 68.9216 80.6536 69.0361 80.5495 69.1228Z" fill="#EE2993"/>
<path d="M87.427 163.883C84.4475 163.07 80.8215 159.689 81.5977 155.042C81.9828 152.738 83.4604 151.246 84.9926 150.281C87.1119 148.947 89.5256 148.444 91.8516 148.317C94.5346 148.171 97.2145 148.54 99.8774 148.931C102.506 149.317 105.135 149.662 107.776 149.873C118.108 150.692 128.504 149.912 138.604 147.561C141.096 146.98 143.574 146.298 146.037 145.516C148.371 144.822 150.652 143.961 152.864 142.938C155.793 141.519 160.554 138.756 160.166 133.638C159.96 130.925 158.378 128.758 156.783 127.249C154.853 125.423 152.621 124.222 150.434 123.056C140.264 117.631 130.074 112.27 119.893 106.878C117.517 105.619 115.125 104.394 112.82 102.92C110.661 101.539 108.512 99.9348 106.774 97.717C105.257 95.7799 103.901 93.1795 103.949 90.2726C103.989 87.8618 105.075 85.8161 106.405 84.2872C109.698 80.5019 114.357 78.9671 118.568 78.1632C123.799 77.1644 129.106 77.1695 134.341 76.2051C138.568 75.4263 143.084 73.923 146.521 70.4002C147.976 68.9673 149.004 67.1523 149.491 65.1601C149.93 63.0735 149.716 60.9008 148.88 58.942C147.949 56.6954 146.464 54.9058 144.902 53.4404C143.108 51.7805 141.073 50.4074 138.868 49.3687C134.225 47.134 129.343 45.9706 124.588 44.2557C122.255 43.4147 119.899 42.4924 117.734 41.0479C115.899 39.824 113.9 38.1744 112.88 35.7212C110.773 30.6597 115.798 27.6432 118.645 26.5005C120.58 25.7592 122.573 25.1829 124.604 24.7776C125.033 24.6845 124.851 23.8189 124.423 23.9116C122.286 24.3324 120.192 24.9502 118.166 25.7571C116.449 26.4775 114.678 27.4244 113.329 29.0538C112.715 29.7894 112.261 30.6473 111.997 31.5716C111.733 32.496 111.663 33.4662 111.794 34.4192C112.151 36.8478 113.704 38.719 115.162 40.0744C117.091 41.8668 119.289 43.0373 121.519 43.9915C123.866 44.9964 126.264 45.7796 128.661 46.5478C133.45 48.0828 138.454 49.4508 142.778 52.7172C145.802 55.0022 149.911 59.2864 148.905 64.5968C148.458 66.9541 147.102 68.7971 145.639 70.1527C143.92 71.6977 141.938 72.9149 139.789 73.7451C130.208 77.6397 119.664 74.8546 110.33 80.1443C107.156 81.9428 103.302 85.2173 103.271 90.3695C103.255 93.046 104.317 95.5007 105.63 97.4409C107.203 99.7647 109.239 101.483 111.311 102.919C113.493 104.376 115.759 105.701 118.096 106.887C120.649 108.242 123.203 109.594 125.758 110.945L141.259 119.156L148.961 123.236C151.312 124.481 153.723 125.675 155.86 127.503C157.61 129 159.677 131.455 159.499 134.504C159.357 136.925 157.765 138.672 156.31 139.84C154.425 141.353 152.309 142.331 150.203 143.144C147.774 144.082 145.305 144.86 142.831 145.559C137.764 146.99 132.592 148.012 127.365 148.617C122.151 149.223 116.898 149.421 111.653 149.208C109.003 149.101 106.357 148.886 103.716 148.566C100.993 148.235 98.2814 147.724 95.5514 147.498C93.0821 147.293 90.589 147.341 88.1572 147.999C86.1267 148.549 83.9815 149.528 82.4402 151.44C81.3041 152.899 80.7352 154.727 80.8405 156.581C80.9449 158.43 81.5977 160.206 82.7143 161.675C83.8484 163.177 85.4419 164.257 87.2469 164.749C87.6725 164.865 87.8545 163.999 87.427 163.883L87.427 163.883Z" fill="white"/>
<path d="M164.25 164.293H86.8356V164.833H164.25V164.293Z" fill="white"/>
<path d="M158.047 138.821C160.84 138.821 163.105 136.534 163.105 133.713C163.105 130.892 160.84 128.605 158.047 128.605C155.254 128.605 152.99 130.892 152.99 133.713C152.99 136.534 155.254 138.821 158.047 138.821Z" fill="#5B85D7"/>
<path d="M148.821 66.8248C151.614 66.8248 153.878 64.5378 153.878 61.7167C153.878 58.8955 151.614 56.6085 148.821 56.6085C146.028 56.6085 143.764 58.8955 143.764 61.7167C143.764 64.5378 146.028 66.8248 148.821 66.8248Z" fill="#4913DF"/>
<path d="M137.387 9.04703L123.345 15.213C122.724 15.4861 122.237 15.9966 121.989 16.6325C121.741 17.2683 121.753 17.9775 122.022 18.6046L126.382 28.7357C126.652 29.3621 127.158 29.8546 127.787 30.1051C128.417 30.3557 129.119 30.3437 129.74 30.072L143.782 23.906C144.402 23.6329 144.89 23.1224 145.138 22.4865C145.386 21.8507 145.374 21.1415 145.105 20.5144L140.745 10.3833C140.474 9.75687 139.969 9.26437 139.339 9.01386C138.71 8.76335 138.008 8.77527 137.387 9.04703ZM137.968 10.3978C138.052 10.3614 138.141 10.3357 138.231 10.3215L133.483 19.3688L123.732 16.6736C123.793 16.6304 123.858 16.5937 123.926 16.5638L137.968 10.3978ZM143.201 22.5552L129.158 28.7212C128.892 28.8376 128.591 28.8427 128.322 28.7354C128.052 28.628 127.835 28.4169 127.719 28.1485L123.398 18.1083L133.662 20.9453C133.821 20.9894 133.991 20.9773 134.144 20.9109C134.296 20.8444 134.421 20.7277 134.498 20.5798L139.467 11.1101L143.768 21.1017C143.883 21.3704 143.888 21.6744 143.782 21.9468C143.676 22.2193 143.467 22.4381 143.201 22.5552Z" fill="#EE2993"/>
<path d="M121.637 96.9261C128.698 96.9261 134.423 91.1439 134.423 84.0113C134.423 76.8786 128.698 71.0964 121.637 71.0964C114.575 71.0964 108.851 76.8786 108.851 84.0113C108.851 91.1439 114.575 96.9261 121.637 96.9261Z" fill="#FFE792"/>
<path d="M119.622 164.452H116.096C115.684 164.451 115.289 164.286 114.998 163.992C114.707 163.698 114.543 163.299 114.543 162.883V133.198C114.543 132.783 114.707 132.384 114.998 132.09C115.289 131.796 115.684 131.63 116.096 131.63H119.622C120.034 131.63 120.428 131.796 120.72 132.09C121.011 132.384 121.174 132.783 121.175 133.198V162.883C121.174 163.299 121.011 163.698 120.72 163.992C120.428 164.286 120.034 164.451 119.622 164.452Z" fill="#2F2E41"/>
<path d="M126.596 164.452H123.07C122.658 164.451 122.264 164.286 121.973 163.992C121.681 163.698 121.518 163.299 121.517 162.883V133.198C121.518 132.783 121.681 132.384 121.973 132.09C122.264 131.796 122.658 131.63 123.07 131.63H126.596C127.008 131.63 127.403 131.796 127.694 132.09C127.985 132.384 128.149 132.783 128.149 133.198V162.883C128.149 163.299 127.985 163.698 127.694 163.992C127.403 164.286 127.008 164.451 126.596 164.452Z" fill="#2F2E41"/>
<path d="M141.209 130.094C141.054 130.094 140.9 130.071 140.752 130.025C140.556 129.965 140.375 129.866 140.218 129.735C140.06 129.604 139.93 129.443 139.835 129.26L126.059 103.039C125.963 102.857 125.904 102.658 125.884 102.453C125.865 102.248 125.886 102.041 125.946 101.844C126.005 101.647 126.103 101.464 126.233 101.305C126.363 101.146 126.522 101.015 126.702 100.918L129.817 99.2487C129.997 99.1521 130.194 99.0923 130.397 99.0727C130.6 99.0531 130.805 99.074 131 99.1344C131.195 99.1948 131.377 99.2934 131.534 99.4246C131.691 99.5557 131.821 99.7169 131.917 99.8989L145.693 126.12C145.789 126.302 145.848 126.501 145.867 126.706C145.887 126.911 145.866 127.118 145.806 127.315C145.747 127.512 145.649 127.695 145.519 127.854C145.389 128.013 145.23 128.144 145.049 128.241L141.935 129.911C141.711 130.031 141.462 130.094 141.209 130.094Z" fill="#FFE792"/>
<path d="M112.529 105.925C112.343 105.925 112.158 105.891 111.984 105.825L84.4907 95.3339C84.3 95.261 84.1253 95.151 83.9768 95.0099C83.8282 94.8689 83.7086 94.6997 83.6249 94.512C83.5411 94.3242 83.4948 94.1216 83.4886 93.9158C83.4824 93.71 83.5164 93.5049 83.5887 93.3124L84.8325 89.9804C84.9793 89.5918 85.2725 89.2777 85.6479 89.1069C86.0234 88.9361 86.4506 88.9224 86.836 89.0689L114.328 99.5573C114.713 99.7051 115.024 100.001 115.193 100.379C115.363 100.758 115.377 101.189 115.233 101.578L113.987 104.911C113.874 105.209 113.675 105.466 113.414 105.647C113.154 105.828 112.845 105.925 112.529 105.925Z" fill="#FFE792"/>
<path d="M129.502 99.1699H113.481C112.689 99.1699 112.047 99.8182 112.047 100.618V134.999C112.047 135.799 112.689 136.447 113.481 136.447H129.502C130.294 136.447 130.936 135.799 130.936 134.999V100.618C130.936 99.8182 130.294 99.1699 129.502 99.1699Z" fill="#6C63FF"/>
<path d="M131.081 71.3639C131.832 73.0291 132.551 75.0417 131.743 76.823C131.446 77.5426 130.889 78.1212 130.186 78.4416C129.353 78.7774 128.444 78.5858 127.672 78.1798C126.046 77.3251 124.998 75.7369 123.546 74.6488C122.885 74.1289 122.103 73.7887 121.275 73.6604C120.321 73.5348 119.374 73.7621 118.441 73.9375C117.449 74.1242 116.423 74.2226 115.505 73.7144C114.697 73.2373 114.064 72.5076 113.703 71.6354C113.514 71.2113 112.896 71.579 113.084 72.0008C113.865 73.7519 115.48 74.9452 117.421 74.8072C118.448 74.7342 119.44 74.3993 120.468 74.3513C121.406 74.32 122.327 74.6171 123.073 75.1924C124.667 76.3401 125.749 78.1026 127.578 78.9362C128.44 79.3295 129.428 79.4934 130.338 79.1547C131.123 78.8464 131.776 78.2715 132.187 77.5288C133.387 75.4417 132.616 73.0289 131.7 70.9985C131.509 70.5751 130.891 70.9426 131.081 71.3639Z" fill="#2F2E41"/>
<path d="M123.05 88.3235C122.26 88.3011 121.277 88.2733 120.52 87.7145C120.295 87.5413 120.11 87.3204 119.977 87.0673C119.845 86.8142 119.77 86.535 119.756 86.2492C119.742 86.0461 119.775 85.8426 119.852 85.6545C119.929 85.4664 120.048 85.2988 120.2 85.165C120.595 84.8274 121.173 84.7481 121.796 84.9331L121.151 80.1729L121.624 80.1074L122.382 85.7033L121.987 85.5203C121.529 85.308 120.9 85.1997 120.509 85.5335C120.413 85.6208 120.338 85.7292 120.29 85.8503C120.242 85.9715 120.223 86.1021 120.233 86.2321C120.245 86.4448 120.302 86.6525 120.4 86.841C120.498 87.0296 120.635 87.1946 120.802 87.3248C121.391 87.7595 122.175 87.8159 123.064 87.8408L123.05 88.3235Z" fill="#2F2E41"/>
<path d="M118.81 80.5835H116.236V81.0661H118.81V80.5835Z" fill="#2F2E41"/>
<path d="M126.933 80.5835H124.359V81.0661H126.933V80.5835Z" fill="#2F2E41"/>
<path d="M112.026 105.712L100.727 102.232C100.375 102.123 100.077 101.882 99.8964 101.558C99.7155 101.233 99.6652 100.851 99.7558 100.491L101.075 95.2411C101.127 95.0337 101.224 94.8406 101.359 94.6756C101.494 94.5106 101.663 94.3778 101.855 94.2869C102.046 94.1959 102.256 94.1489 102.467 94.1494C102.679 94.1499 102.888 94.1978 103.08 94.2896L114.286 99.6701C114.642 99.8063 114.929 100.079 115.085 100.429C115.242 100.778 115.255 101.176 115.121 101.536L113.875 104.868C113.74 105.227 113.47 105.518 113.123 105.676C112.777 105.834 112.382 105.847 112.026 105.712Z" fill="#2F2E41"/>
<path d="M126.262 102.742L131.107 113.623C131.258 113.963 131.533 114.23 131.874 114.371C132.216 114.511 132.597 114.513 132.94 114.376L137.929 112.391C138.126 112.313 138.303 112.191 138.448 112.035C138.593 111.88 138.702 111.693 138.767 111.489C138.833 111.286 138.852 111.07 138.825 110.858C138.798 110.646 138.724 110.442 138.61 110.262L131.909 99.7137C131.731 99.3751 131.427 99.1217 131.063 99.0091C130.7 98.8965 130.308 98.9338 129.972 99.1128L126.856 100.783C126.521 100.963 126.269 101.271 126.158 101.638C126.046 102.006 126.084 102.403 126.262 102.742Z" fill="#2F2E41"/>
<path d="M80.3466 67.3813L47.1305 60.1439L46.6988 60.0501C46.479 60.0019 46.2502 60.0173 46.0386 60.0946C45.8271 60.1719 45.6414 60.3079 45.503 60.487C45.3646 60.6662 45.2791 60.8811 45.2563 61.1071C45.2334 61.3332 45.2742 61.5611 45.3739 61.7648L58.5621 88.8163C58.6474 88.9901 58.7729 89.1406 58.9279 89.2552C59.0828 89.3699 59.2628 89.4452 59.4526 89.4749C59.643 89.5048 59.8378 89.4874 60.0201 89.4243C60.2023 89.3612 60.3667 89.2542 60.4988 89.1125L69.659 79.3567C69.7242 79.2856 69.8032 79.2288 69.8911 79.19C69.9791 79.1512 70.074 79.1313 70.17 79.1313C70.3004 79.1295 70.4289 79.1635 70.5416 79.2297C70.6544 79.2959 70.7472 79.3919 70.8102 79.5073L72.6864 83.0127C72.8062 83.2464 72.9999 83.4329 73.2368 83.5426C73.4737 83.6522 73.7401 83.6786 73.9935 83.6177L74.0029 83.6156C74.2594 83.5607 74.4903 83.4203 74.6583 83.2169C74.8263 83.0135 74.9217 82.7589 74.9291 82.4941L75.305 74.4025C75.3095 74.3016 75.3344 74.2026 75.3783 74.1118C75.4255 74.0219 75.4894 73.9422 75.5667 73.8769L80.8513 69.4953C81.025 69.3513 81.155 69.1607 81.2264 68.9455C81.2978 68.7303 81.3078 68.4991 81.2551 68.2785C81.2024 68.0578 81.0892 67.8566 80.9286 67.6979C80.7679 67.5392 80.5662 67.4295 80.3466 67.3813ZM80.5495 69.1228L75.2649 73.5045C75.196 73.5605 75.1336 73.6242 75.0789 73.6943C75.0295 73.7567 74.9869 73.8242 74.9517 73.8957C74.9148 73.9689 74.8858 74.0458 74.865 74.1252L74.8655 74.1275C74.8436 74.2102 74.831 74.2951 74.8279 74.3806L74.4522 82.4722C74.449 82.6313 74.3924 82.7846 74.2915 82.9068C74.1906 83.0291 74.0516 83.1131 73.8972 83.1449L73.8926 83.1459C73.7405 83.1841 73.5801 83.1693 73.4374 83.1038C73.2947 83.0383 73.178 82.9261 73.1064 82.7853L71.2296 79.2776C71.1329 79.0972 70.9922 78.9447 70.8208 78.8347C70.6494 78.7246 70.4529 78.6606 70.2502 78.6488L70.2479 78.6493C70.2206 78.648 70.1934 78.6466 70.1668 78.6476C69.9775 78.6477 69.7912 78.6945 69.6239 78.7838C69.5071 78.8452 69.4016 78.9264 69.312 79.024L60.152 88.7798C60.0725 88.8643 59.974 88.9281 59.8648 88.9659C59.7557 89.0037 59.6391 89.0143 59.525 88.9969C59.411 88.9794 59.3027 88.9344 59.2096 88.8657C59.1164 88.797 59.041 88.7065 58.9898 88.6021L45.8017 61.5506C45.7427 61.4284 45.719 61.2919 45.7331 61.1567C45.7472 61.0214 45.7986 60.8929 45.8814 60.7858C45.9643 60.6787 46.0753 60.5972 46.2018 60.5507C46.3283 60.5042 46.4652 60.4945 46.5968 60.5227L47.0388 60.6191L80.2445 67.8539C80.3763 67.8827 80.4975 67.9485 80.5941 68.0436C80.6906 68.1387 80.7587 68.2594 80.7905 68.3918C80.8224 68.5243 80.8166 68.663 80.774 68.7923C80.7314 68.9216 80.6536 69.0361 80.5495 69.1228Z" fill="white"/>
<path d="M75.1848 73.7422L74.9875 74.1818L74.8655 74.1275L74.865 74.1251L46.8788 61.3074L70.2479 78.6492L70.2501 78.6487L70.312 78.6967L70.0302 79.0859L69.6239 78.7837L46.5947 61.6971C46.5041 61.6313 46.4392 61.5356 46.4111 61.4265C46.383 61.3174 46.3935 61.2019 46.4408 61.0998C46.4881 60.9978 46.5692 60.9157 46.6702 60.8676C46.7711 60.8196 46.8855 60.8087 46.9935 60.8368C47.02 60.8434 47.0457 60.8525 47.0704 60.8641L75.0789 73.6942L75.1848 73.7422Z" fill="#3F3D56"/>
</svg>
