<svg width="56" height="56" viewBox="0 0 56 56" fill="none" xmlns="http://www.w3.org/2000/svg">
<circle cx="28.2499" cy="27.5797" r="27" fill="white" stroke="#112340"/>
<circle cx="28.2499" cy="27.5797" r="25" fill="url(#paint0_linear)"/>
<path d="M45.3273 20.2051L12.1112 12.9678L11.6795 12.8739C11.4597 12.8257 11.2308 12.8411 11.0193 12.9184C10.8077 12.9957 10.6221 13.1318 10.4837 13.3109C10.3453 13.49 10.2598 13.7049 10.2369 13.931C10.2141 14.157 10.2549 14.385 10.3546 14.5887L23.5428 41.6401C23.6281 41.8139 23.7536 41.9645 23.9085 42.0791C24.0635 42.1937 24.2435 42.269 24.4333 42.2987C24.6237 42.3287 24.8184 42.3113 25.0007 42.2482C25.183 42.185 25.3473 42.078 25.4795 41.9364L34.6397 32.1806C34.7048 32.1094 34.7839 32.0527 34.8718 32.0139C34.9597 31.9751 35.0547 31.9551 35.1506 31.9552C35.2811 31.9533 35.4095 31.9873 35.5223 32.0536C35.6351 32.1198 35.7279 32.2157 35.7908 32.3311L37.6671 35.8365C37.7869 36.0702 37.9806 36.2568 38.2175 36.3664C38.4544 36.4761 38.7207 36.5025 38.9742 36.4415L38.9835 36.4395C39.2401 36.3846 39.4709 36.2441 39.6389 36.0407C39.8069 35.8373 39.9023 35.5828 39.9098 35.318L40.2857 27.2264C40.2901 27.1254 40.3151 27.0265 40.359 26.9356C40.4061 26.8458 40.4701 26.766 40.5473 26.7008L45.8319 22.3191C46.0056 22.1751 46.1356 21.9846 46.2071 21.7694C46.2785 21.5542 46.2884 21.323 46.2358 21.1023C46.1831 20.8817 46.0699 20.6804 45.9092 20.5218C45.7485 20.3631 45.5468 20.2533 45.3273 20.2051ZM45.5301 21.9467L40.2456 26.3283C40.1767 26.3843 40.1143 26.448 40.0596 26.5181L12.0511 13.688C12.0264 13.6764 12.0007 13.6673 11.9742 13.6607C11.8661 13.6326 11.7518 13.6435 11.6509 13.6915C11.5499 13.7396 11.4688 13.8217 11.4215 13.9238C11.3742 14.0258 11.3637 14.1413 11.3918 14.2504C11.4199 14.3595 11.4848 14.4552 11.5754 14.521L34.6046 31.6077C34.4877 31.669 34.3822 31.7503 34.2927 31.8479L25.1326 41.6036C25.0531 41.6881 24.9546 41.752 24.8455 41.7898C24.7364 41.8276 24.6198 41.8382 24.5057 41.8207C24.3916 41.8033 24.2834 41.7583 24.1902 41.6895C24.097 41.6208 24.0217 41.5304 23.9705 41.4259L10.7824 14.3744C10.7234 14.2522 10.6996 14.1157 10.7137 13.9805C10.7278 13.8453 10.7792 13.7168 10.8621 13.6097C10.945 13.5025 11.056 13.4211 11.1825 13.3745C11.309 13.328 11.4458 13.3183 11.5775 13.3465L12.0194 13.443L45.2252 20.6777C45.357 20.7066 45.4781 20.7723 45.5747 20.8675C45.6713 20.9626 45.7394 21.0833 45.7712 21.2157C45.803 21.3481 45.7973 21.4869 45.7547 21.6162C45.712 21.7454 45.6342 21.86 45.5301 21.9467Z" fill="#EE2993"/>
<path d="M45.3273 20.2051L12.1112 12.9678L11.6795 12.8739C11.4597 12.8257 11.2308 12.8411 11.0193 12.9184C10.8077 12.9957 10.6221 13.1318 10.4837 13.3109C10.3453 13.49 10.2598 13.7049 10.2369 13.931C10.2141 14.157 10.2549 14.385 10.3546 14.5887L23.5428 41.6401C23.6281 41.8139 23.7536 41.9645 23.9085 42.0791C24.0635 42.1937 24.2435 42.269 24.4333 42.2987C24.6237 42.3287 24.8184 42.3113 25.0007 42.2482C25.183 42.185 25.3473 42.078 25.4795 41.9364L34.6397 32.1806C34.7048 32.1094 34.7839 32.0527 34.8718 32.0139C34.9597 31.9751 35.0547 31.9551 35.1506 31.9552C35.2811 31.9533 35.4095 31.9873 35.5223 32.0536C35.6351 32.1198 35.7279 32.2157 35.7908 32.3311L37.6671 35.8365C37.7869 36.0702 37.9806 36.2568 38.2175 36.3664C38.4544 36.4761 38.7207 36.5025 38.9742 36.4415L38.9835 36.4395C39.2401 36.3846 39.4709 36.2441 39.6389 36.0407C39.8069 35.8373 39.9023 35.5828 39.9098 35.318L40.2857 27.2264C40.2901 27.1254 40.3151 27.0265 40.359 26.9356C40.4061 26.8458 40.4701 26.766 40.5473 26.7008L45.8319 22.3191C46.0056 22.1751 46.1356 21.9846 46.2071 21.7694C46.2785 21.5542 46.2884 21.323 46.2358 21.1023C46.1831 20.8817 46.0699 20.6804 45.9092 20.5218C45.7485 20.3631 45.5468 20.2533 45.3273 20.2051ZM45.5301 21.9467L40.2456 26.3283C40.1767 26.3843 40.1143 26.448 40.0596 26.5181C40.0102 26.5805 39.9675 26.648 39.9324 26.7196C39.8955 26.7927 39.8664 26.8697 39.8457 26.949L39.8462 26.9514C39.8243 27.034 39.8117 27.1189 39.8086 27.2045L39.4328 35.2961C39.4297 35.4552 39.373 35.6084 39.2722 35.7307C39.1713 35.853 39.0323 35.9369 38.8779 35.9688L38.8732 35.9698C38.7211 36.008 38.5607 35.9931 38.418 35.9276C38.2753 35.8622 38.1587 35.75 38.0871 35.6092L36.2103 32.1015C36.1136 31.921 35.9729 31.7686 35.8014 31.6585C35.63 31.5485 35.4336 31.4845 35.2308 31.4726L35.2285 31.4731C35.2013 31.4718 35.1741 31.4705 35.1474 31.4715C34.9582 31.4716 34.7719 31.5183 34.6046 31.6077C34.4877 31.669 34.3822 31.7503 34.2927 31.8479L25.1326 41.6036C25.0531 41.6881 24.9547 41.752 24.8455 41.7898C24.7364 41.8276 24.6198 41.8382 24.5057 41.8207C24.3916 41.8033 24.2834 41.7583 24.1902 41.6895C24.097 41.6208 24.0217 41.5304 23.9705 41.4259L10.7824 14.3744C10.7234 14.2522 10.6996 14.1157 10.7137 13.9805C10.7278 13.8453 10.7792 13.7168 10.8621 13.6097C10.945 13.5025 11.056 13.4211 11.1825 13.3745C11.309 13.328 11.4458 13.3183 11.5775 13.3465L12.0194 13.443L45.2252 20.6777C45.357 20.7066 45.4781 20.7723 45.5747 20.8675C45.6713 20.9626 45.7394 21.0833 45.7712 21.2157C45.803 21.3481 45.7973 21.4869 45.7547 21.6162C45.712 21.7454 45.6342 21.86 45.5301 21.9467Z" fill="white"/>
<path d="M40.1655 26.5661L39.9681 27.0056L39.8462 26.9513L39.8457 26.949L11.8594 14.1312L35.2285 31.4731L35.2308 31.4726L35.2927 31.5205L35.0109 31.9097L34.6046 31.6076L11.5754 14.5209C11.4848 14.4551 11.4199 14.3594 11.3918 14.2504C11.3637 14.1413 11.3742 14.0258 11.4215 13.9237C11.4688 13.8216 11.5499 13.7395 11.6508 13.6915C11.7518 13.6434 11.8661 13.6326 11.9742 13.6607C12.0006 13.6672 12.0264 13.6763 12.0511 13.6879L40.0595 26.5181L40.1655 26.5661Z" fill="white"/>
<defs>
<linearGradient id="paint0_linear" x1="12.4644" y1="7.56657" x2="46.2664" y2="44.2874" gradientUnits="userSpaceOnUse">
<stop stop-color="#9B1EBA"/>
<stop offset="1" stop-color="#EE2993"/>
</linearGradient>
</defs>
</svg>
